<svg xmlns="http://www.w3.org/2000/svg" width="2341" height="638" fill="none"><mask id="a" width="858" height="638" x="0" y="0" maskUnits="userSpaceOnUse" style="mask-type:luminance"><path fill="#fff" d="M858 0H0v638h858z"/></mask><g fill="#b31a1d" mask="url(#a)"><path d="M149.22 53.06s.59.29.78.3l4.7.27c15.87.91 31.35 2.4 47.07 4.89l41.58 6.58c16.42 2.6 32.32 6.33 48.34 10.74 27.85 7.68 55.49 18.38 79.74 34.2 22.11 14.48 40.26 32.43 53.22 55.97 28.11-51.15 83.25-76.76 137.04-91 16.02-4.24 31.92-7.77 48.31-10.33l37.25-5.82c17.5-2.73 34.83-4.21 52.49-5.11l4.53-.23h24.88l4.79.23c6.92.36 13.64.67 20.54 1.18.69.05 1.71.08 1.71.95l-.05 279.11c0 38.02-.05 80.58-.04 115.98 0 1.33-.6 1.24-.89 1.27l-18.48 2.08c-57.3 6.46-139.13 25.04-192.74 46.1l-47.87 18.8-32.02 15.67c-.21.1-.59.34-.73.42s-.41-.44-.5-.7c-6.88-19.17-16.62-37.01-28.79-53.24L487.81 435l52.11-47.51c25-24.49 45.72-46.1 64.28-76.04 11.21-18.08 19.57-37.62 24.1-58.41 5.87-26.93 1.86-53.34-15.48-75.13-8.28-10.4-18.09-19.28-29.64-25.98-14.72-8.54-31.17-12.99-48.25-13.4-40.62-.96-87.44 27.85-107.52 58.14l-2.84 4.28c-1.02-1.54-1.64-3-2.74-4.46-14.66-19.55-33.77-35.05-55.61-46.08-14.75-7.46-30.71-11.82-47.32-12.18-16.98-.37-33.55 3.27-48.6 11-13.23 6.8-24.45 16.46-33.72 28.02-17.51 21.84-21.67 48.25-15.79 75.33 4.47 20.56 12.68 39.93 23.7 57.85 18.7 30.4 39.96 52.58 65.35 77.34l51.41 46.87 53.79 46.45c-12.55 16.64-22.16 34.6-29.12 54.04l-32.96-16.44-49.36-19.26c-68.02-24.62-138.28-40.27-210.39-47.55l-.21-7.52-.04-133.6-.05-255.92 18.2-1.26c1.56-.11 3.04-.16 4.34-.5h33.79z"/><path d="M38.28 527.16V174.57c0-2.71 2.08-6.06 3.7-8.24 5.44-7.32 14.43-11.28 23.52-10.6l.06 80.65.07 215.29.05 45.33 211.53 33.49 138.46 21.28 1.02-.23c-2.82-2.27-5.69-3.86-8.82-5.53l-6.76-3.6c1.41-5.52 3.11-10.54 5.25-15.87 5.21-12.99 11.21-25.4 17.66-37.81.04-.09.3-.46.36-.55.08-.11.25.03.53.18 6.23 11.98 12.04 23.92 17.14 36.44 2.42 5.93 4.49 11.62 5.91 17.67l-7.96 4.19s-10.14 5.5-6.67 5.13l138.16-21.24 211.95-33.59.09-195.15.05-144.54.11-1.28c.08-.99 16.03-1.18 24.37 11.64 1.66 2.56 2.65 5.28 2.65 8.39v350.64c0 .29-.42.41-1.14.52l-302.22 47.38c-19.77 19.99-47.97 30.84-75.62 32.6-31.82 2.03-67.42-9.59-90.01-32.65L38.29 527.16z"/><path d="M492.31 176.85c24.43-10.22 51.75-6.92 73.22 8.03 18.41 12.82 30.27 32.64 32.4 55.13 1.29 13.63-.6 27.27-5.57 40.16-10.67 27.7-26.77 52.27-46.05 74.77-11.48 13.36-23.06 26.71-35.94 38.79l-85.81 80.51-86.07-80.73c-12.77-11.97-24.21-25.22-35.6-38.43-19.28-22.54-34.97-46.39-45.84-74.03-13.89-35.29-4.93-74.67 27.03-96.54 21-14.37 47.56-17.7 71.36-8.2 26.19 10.58 48.6 27.09 64.21 51.22-15.51 20.85-23.48 46.25-18.7 72.16 1.71 11.17 9.51 27.64 20.4 32.13 2.13.88 4.26.89 6.39 0 11.14-4.62 18.95-21.48 20.55-32.93 4.49-25.64-3.49-50.66-18.82-71.36 15.43-23.8 36.97-39.85 62.85-50.68"/><path d="M431.25 296.8c-1.06 2.75-3.63 9.13-6.76 9.19-3.29.06-5.72-5.9-6.9-8.68-6.8-20.25-5.13-40.64 6.94-58.67 11.52 18.12 12.97 38.21 6.71 58.17"/></g><mask id="b" width="842" height="612" x="2" y="19" maskUnits="userSpaceOnUse" style="mask-type:luminance"><path fill="#fff" d="M2.5 19.5h841V631H2.5z"/></mask><path fill="#b31a1d" d="M973.25 407v-16.953h21.87V226.258h-21.87v-16.953h63.3q30.075 0 46.62 10.527 16.68 10.39 16.68 36.777v3.145c0 9.57-2.28 18.047-6.83 25.43-4.56 7.291-10.4 13.261-17.5 17.91 9.38 3.919 16.9 9.752 22.55 17.5 5.75 7.747 8.62 17.454 8.62 29.121v3.144c0 17.592-5.43 31.036-16.27 40.332-10.85 9.206-26.98 13.809-48.4 13.809zm66.58-109.922c7.02 0 13.77-1.367 20.24-4.101q9.705-4.102 15.99-12.305c4.2-5.56 6.29-12.533 6.29-20.918v-3.145c0-8.385-1.87-14.765-5.6-19.14-3.74-4.375-9.07-7.337-16-8.887q-10.395-2.324-25.02-2.324h-23.11v70.82zm49.36 52.637c0-8.841-2.1-15.86-6.29-21.055q-6.15-7.793-16.68-11.211c-7.02-2.278-14.9-3.418-23.65-3.418h-29.95v76.016h28.58q24.195 0 36.09-8.613c7.93-5.834 11.9-15.358 11.9-28.575zm100.9 58.926c-17.96 0-31.08-6.016-39.38-18.047q-12.3-18.184-12.3-51.406v-7.93q0-33.086 12.3-50.449c8.3-11.576 21.42-17.364 39.38-17.364h6.56q26.925 0 39.24 17.364c8.29 11.575 12.44 28.392 12.44 50.449v7.93c0 22.148-4.15 39.283-12.44 51.406q-12.315 18.047-39.24 18.047zm1.36-128.243c-9.48 0-16.81 2.142-22.01 6.426-5.1 4.284-8.66 10.345-10.66 18.184-1.92 7.747-2.87 16.999-2.87 27.754v5.058c0 10.664.95 20.052 2.87 28.164 2 8.112 5.56 14.447 10.66 19.004 5.2 4.466 12.53 6.7 22.01 6.7h3.69c9.48 0 16.78-2.234 21.88-6.7 5.19-4.557 8.8-10.892 10.8-19.004 2.01-8.112 3.01-17.5 3.01-28.164v-5.058c0-10.755-1-20.007-3.01-27.754-2-7.839-5.61-13.9-10.8-18.184-5.1-4.284-12.4-6.426-21.88-6.426zm138.09 128.243c-17.96 0-31.08-6.016-39.38-18.047q-12.3-18.184-12.3-51.406v-7.93q0-33.086 12.3-50.449c8.3-11.576 21.42-17.364 39.38-17.364h6.56q26.94 0 39.24 17.364c8.29 11.575 12.44 28.392 12.44 50.449v7.93c0 22.148-4.15 39.283-12.44 51.406q-12.3 18.047-39.24 18.047zm1.37-128.243q-14.22 0-22.02 6.426c-5.1 4.284-8.65 10.345-10.66 18.184-1.91 7.747-2.87 16.999-2.87 27.754v5.058c0 10.664.96 20.052 2.87 28.164 2.01 8.112 5.56 14.447 10.66 19.004q7.8 6.7 22.02 6.7h3.69q14.22 0 21.87-6.7 7.8-6.836 10.8-19.004c2.01-8.112 3.01-17.5 3.01-28.164v-5.058c0-10.755-1-20.007-3.01-27.754q-3-11.758-10.8-18.184-7.65-6.426-21.87-6.426zM1409.11 407v-16.953h21.87V208.758h-21.87v-16.953h39.37v129.199h17.37l35-38.965h-15.86v-16.953h51.95v16.953h-13.81l-41.42 46.211 44.43 61.797h14.9V407h-24.47l-48.95-69.043h-19.14v52.09h21.88V407zm251.56 0v-16.953h21.88V226.258h-21.88v-16.953h61.25v16.953h-21.87v163.789h74.92v-24.609h17.5V407zm208.63 1.641c-17.95 0-31.08-6.016-39.37-18.047-8.2-12.123-12.31-29.258-12.31-51.406v-7.93c0-22.057 4.11-38.874 12.31-50.449 8.29-11.576 21.42-17.364 39.37-17.364h6.57q26.925 0 39.24 17.364c8.29 11.575 12.44 28.392 12.44 50.449v7.93c0 22.148-4.15 39.283-12.44 51.406q-12.315 18.047-39.24 18.047zm1.37-128.243c-9.48 0-16.81 2.142-22.01 6.426-5.1 4.284-8.66 10.345-10.66 18.184q-2.88 11.621-2.88 27.754v5.058q0 15.996 2.88 28.164c2 8.112 5.56 14.447 10.66 19.004 5.2 4.466 12.53 6.7 22.01 6.7h3.69c9.48 0 16.77-2.234 21.88-6.7q7.785-6.836 10.8-19.004c2-8.112 3.01-17.5 3.01-28.164v-5.058c0-10.755-1.01-20.007-3.01-27.754q-3.015-11.758-10.8-18.184c-5.11-4.284-12.4-6.426-21.88-6.426zM2027.76 407h-20.51l-41.97-124.961h-18.87v-16.953h57.97v16.953h-21.19l34.32 104.316 34.18-104.316h-21.06v-16.953h57.97v16.953h-19zm131.39 1.641c-17.96 0-31.08-6.016-39.38-18.047q-12.3-18.184-12.3-51.406v-7.93q0-33.086 12.3-50.449c8.3-11.576 21.42-17.364 39.38-17.364h5.19c17.05 0 29.58 4.649 37.6 13.946 8.11 9.297 12.17 24.974 12.17 47.031v15.176h-89.14c.09 10.39 1.14 19.505 3.14 27.343q3.15 11.622 10.8 18.184c5.11 4.375 12.31 6.563 21.61 6.563h3.82q13.125 0 19.83-4.512c4.56-3.099 7.65-6.654 9.29-10.664 1.65-4.011 2.47-7.429 2.47-10.254v-.957h18.18v2.324q0 8.613-4.92 18.184-4.785 9.433-15.45 16.132c-7.02 4.467-16.32 6.7-27.89 6.7zm1.37-128.243c-12.67 0-21.56 3.783-26.66 11.348-5.02 7.474-7.89 17.774-8.62 30.899h71.37q-.405-21.876-7.38-31.993-6.84-10.254-25.02-10.254zM2235.44 407v-16.953h21.87V282.039h-21.87v-16.953h39.37v26.387q8.76-10.801 21.6-19.414c8.66-5.743 17.5-8.614 26.53-8.614h17.5v50.313h-17.5v-33.086c-4.92 0-9.94 1.139-15.04 3.418a75.4 75.4 0 0 0-14.49 8.203q-6.84 4.921-11.76 9.844-4.92 4.784-6.84 7.793v80.117h31.99V407z"/></svg>