<svg xmlns="http://www.w3.org/2000/svg" style="display:none">
  <symbol id="icon-moon" viewBox="0 0 24 24">
    <path fill="none" stroke="currentColor" stroke-linecap="round" stroke-linejoin="round" stroke-width="2"
          d="M12 3a6 6 0 0 0 9 9a9 9 0 1 1-9-9"/>
  </symbol>

  <symbol id="icon-sun" viewBox="0 0 24 24">
    <g fill="none" stroke="currentColor" stroke-linecap="round" stroke-linejoin="round" stroke-width="2">
      <circle cx="12" cy="12" r="4"/>
      <path d="M12 2v2m0 16v2M4.93 4.93l1.41 1.41m11.32 11.32l1.41 1.41M2 12h2m16 0h2M6.34 17.66l-1.41 1.41M19.07 4.93l-1.41 1.41"/>
    </g>
  </symbol>

<symbol id="icon-cart" viewBox="0 0 24 24"><path fill="none" stroke="currentColor" stroke-linecap="round" stroke-linejoin="round" stroke-width="2" d="m15 11l-1 9m5-9l-4-7M2 11h20M3.5 11l1.6 7.4a2 2 0 0 0 2 1.6h9.8a2 2 0 0 0 2-1.6l1.7-7.4M4.5 15.5h15M5 11l4-7m0 7l1 9"></path></symbol>

  <symbol id="icon-search" viewBox="0 0 24 24">
    <g fill="none" stroke="currentColor" stroke-linecap="round" stroke-linejoin="round" stroke-width="2">
      <circle cx="11" cy="11" r="8"/>
      <path d="m21 21l-4.3-4.3"/>
    </g>
  </symbol>

  <symbol id="icon-heart" viewBox="0 0 24 24">
    <path fill="none" stroke="currentColor" stroke-linecap="round" stroke-linejoin="round" stroke-width="2"
          d="M19 14c1.49-1.46 3-3.21 3-5.5A5.5 5.5 0 0 0 16.5 3c-1.76 0-3 .5-4.5 2c-1.5-1.5-2.74-2-4.5-2A5.5 5.5 0 0 0 2 8.5c0 2.3 1.5 4.05 3 5.5l7 7Z"/>
  </symbol>

  <symbol id="icon-heart-filled" viewBox="0 0 24 24">
    <path fill="currentColor" stroke="currentColor" stroke-linecap="round" stroke-linejoin="round" stroke-width="2"
          d="M19 14c1.49-1.46 3-3.21 3-5.5A5.5 5.5 0 0 0 16.5 3c-1.76 0-3 .5-4.5 2c-1.5-1.5-2.74-2-4.5-2A5.5 5.5 0 0 0 2 8.5c0 2.3 1.5 4.05 3 5.5l7 7Z"/>
  </symbol>

  <symbol id="icon-phone" viewBox="0 0 24 24">
    <path fill="none" stroke="currentColor" stroke-linecap="round" stroke-linejoin="round" stroke-width="2"
          d="M22 16.92v3a2 2 0 0 1-2.18 2a19.8 19.8 0 0 1-8.63-3.07a19.5 19.5 0 0 1-6-6a19.8 19.8 0 0 1-3.07-8.67A2 2 0 0 1 4.11 2h3a2 2 0 0 1 2 1.72a12.8 12.8 0 0 0 .7 2.81a2 2 0 0 1-.45 2.11L8.09 9.91a16 16 0 0 0 6 6l1.27-1.27a2 2 0 0 1 2.11-.45a12.8 12.8 0 0 0 2.81.7A2 2 0 0 1 22 16.92"/>
  </symbol>

  <symbol id="icon-user" viewBox="0 0 24 24">
    <g fill="none" stroke="currentColor" stroke-linecap="round" stroke-linejoin="round" stroke-width="2">
      <path d="M19 21v-2a4 4 0 0 0-4-4H9a4 4 0 0 0-4 4v2"/>
      <circle cx="12" cy="7" r="4"/>
    </g>
  </symbol>

  <symbol id="icon-meest"  viewbox="0 0 12 16"><path d="M5.04879 8.00001L3.78659 5.84155H0V10.2784H3.71342L5.04879 8.00001Z" fill="#0061AF"></path><path d="M7.22562 0H2.5061L7.22562 8L2.5061 16H7.22562L12 8L7.22562 0Z" fill="#E60033"></path></symbol>

<symbol viewBox="0 0 24 24" id="lucide-circle-dollar-sign"><g fill="none" stroke="currentColor" stroke-linecap="round" stroke-linejoin="round" stroke-width="2"><circle cx="12" cy="12" r="10"></circle><path d="M16 8h-6a2 2 0 1 0 0 4h4a2 2 0 1 1 0 4H8m4 2V6"></path></g></symbol>

<symbol viewBox="0 0 24 24" id="lucide-credit-card"><g fill="none" stroke="currentColor" stroke-linecap="round" stroke-linejoin="round" stroke-width="2"><rect width="20" height="14" x="2" y="5" rx="2"></rect><path d="M2 10h20"></path></g></symbol>

<symbol viewBox="0 0 24 24" id="lucide-store"><g fill="none" stroke="currentColor" stroke-linecap="round" stroke-linejoin="round" stroke-width="2"><path d="M15 21v-5a1 1 0 0 0-1-1h-4a1 1 0 0 0-1 1v5m8.774-10.69a1.12 1.12 0 0 0-1.549 0a2.5 2.5 0 0 1-3.451 0a1.12 1.12 0 0 0-1.548 0a2.5 2.5 0 0 1-3.452 0a1.12 1.12 0 0 0-1.549 0a2.5 2.5 0 0 1-3.77-3.248l2.889-4.184A2 2 0 0 1 7 2h10a2 2 0 0 1 1.653.873l2.895 4.192a2.5 2.5 0 0 1-3.774 3.244"></path><path d="M4 10.95V19a2 2 0 0 0 2 2h12a2 2 0 0 0 2-2v-8.05"></path></g></symbol>

 <symbol id="icon-ukrp"  viewbox="0 0 333 317"><path d="M332.298 0C332.298 0 269.136 176.91 246.988 225.214C224.84 273.518 187.066 316.898 122.903 316.898C55.0255 316.898 0 262.173 0 194.666C0.000121583 139.903 36.2114 93.5534 86.1189 78.0045L118.045 149.712C95.2242 152.123 77.4459 171.329 77.4458 194.666C77.4458 219.634 97.7975 239.875 122.903 239.875C148.008 239.875 167.776 219.634 167.776 194.666C167.776 182.945 164.006 172.58 159.942 163.689C155.88 154.802 87.4344 0.120919 87.3809 0H332.298Z"></path></symbol>

  <symbol id="icon-novaposhta"  viewbox="0 0 16 16"><path fill-rule="evenodd" clip-rule="evenodd" d="M12.8208 4.73701C12.8691 4.72158 12.9328 4.75243 12.9965 4.83725C12.9965 4.83725 12.9965 4.83725 15.8741 7.67998C16.0422 7.84962 16.0422 8.10664 15.8741 8.23259C15.8741 8.23259 15.8741 8.23259 12.9965 11.119C12.9328 11.2038 12.8691 11.2244 12.8208 11.1987C12.7724 11.173 12.7418 11.0984 12.7418 10.9905V4.92207C12.7418 4.81668 12.7724 4.75243 12.8208 4.73701Z" fill="#ED1C24"></path><path fill-rule="evenodd" clip-rule="evenodd" d="M7.89807 0H8.10179L8.29788 0.0822493C8.29788 0.0822493 8.29788 0.0822491 11.2595 3.05349C11.3868 3.22313 11.3436 3.35164 11.1322 3.35164C11.1322 3.35164 11.1322 3.35164 9.90475 3.35164C9.69339 3.35164 9.52532 3.52128 9.52532 3.73462C9.52532 3.73462 9.52532 3.73462 9.52532 5.93992C9.52532 6.15325 9.3547 6.32289 9.10004 6.32289C9.10004 6.32289 9.10004 6.32289 6.94311 6.32289C6.73175 6.32289 6.56113 6.15325 6.56113 5.93992C6.56113 5.93992 6.56113 5.93992 6.56113 3.73462C6.56113 3.52128 6.39306 3.35164 6.17915 3.35164H4.86767C4.65631 3.35164 4.61302 3.22313 4.74034 3.05349C4.74034 3.05349 4.74034 3.05349 7.70453 0.0822493L7.89807 0Z" fill="#ED1C24"></path><path fill-rule="evenodd" clip-rule="evenodd" d="M3.25831 4.67277C3.31179 4.69847 3.3449 4.77301 3.3449 4.88096V11.0753C3.3449 11.1833 3.31179 11.2475 3.25831 11.2681C3.20738 11.2887 3.13353 11.2681 3.04695 11.2039C3.04695 11.2039 3.04695 11.2039 0.126054 8.23261C-0.0420181 8.10666 -0.0420181 7.84963 0.126054 7.68C0.126054 7.68 0.126055 7.67999 3.04695 4.75244C3.13353 4.66763 3.20738 4.64706 3.25831 4.67277Z" fill="#ED1C24"></path><path fill-rule="evenodd" clip-rule="evenodd" d="M6.94328 9.54858C6.94328 9.54858 6.94328 9.54858 9.10021 9.54858C9.35486 9.54858 9.52548 9.71822 9.52548 9.93156C9.52548 9.93156 9.52548 9.93156 9.52548 12.2654C9.52548 12.5198 9.69355 12.6895 9.90492 12.6895H11.0483C11.2597 12.6895 11.3437 12.8154 11.1756 12.9439C11.1756 12.9439 11.1756 12.9439 8.29804 15.8715C8.21146 15.9563 8.10705 16 8.00009 16C7.89569 16 7.78873 15.9563 7.7047 15.8715C7.7047 15.8715 7.7047 15.8715 4.82709 12.9439C4.65647 12.8154 4.74051 12.6895 4.95187 12.6895C4.95187 12.6895 4.95187 12.6895 6.17931 12.6895C6.39322 12.6895 6.56129 12.5198 6.56129 12.2654C6.56129 12.2654 6.56129 12.2654 6.56129 9.93156C6.56129 9.71822 6.73191 9.54858 6.94328 9.54858Z" fill="#ED1C24"></path></symbol>

  <symbol id="icon-menu" viewBox="0 0 24 24">
    <path fill="none" stroke="currentColor" stroke-linecap="round" stroke-linejoin="round" stroke-width="2"
          d="M4 12h16M4 6h16M4 18h16"/>
  </symbol>

  <symbol id="icon-close" viewBox="0 0 24 24">
    <path fill="none" stroke="currentColor" stroke-linecap="round" stroke-linejoin="round" stroke-width="2"
          d="M18 6L6 18M6 6l12 12"/>
  </symbol>

<symbol viewBox="0 0 24 24" id="lucide-truck"><!-- Icon from Lucide by Lucide Contributors - https://github.com/lucide-icons/lucide/blob/main/LICENSE --><g fill="none" stroke="currentColor" stroke-linecap="round" stroke-linejoin="round" stroke-width="2"><path d="M14 18V6a2 2 0 0 0-2-2H4a2 2 0 0 0-2 2v11a1 1 0 0 0 1 1h2m10 0H9m10 0h2a1 1 0 0 0 1-1v-3.65a1 1 0 0 0-.22-.624l-3.48-4.35A1 1 0 0 0 17.52 8H14"></path><circle cx="17" cy="18" r="2"></circle><circle cx="7" cy="18" r="2"></circle></g></symbol>

  <symbol id="icon-caret-down" viewBox="0 0 24 24">
    <path fill="none" stroke="currentColor" stroke-linecap="round" stroke-linejoin="round" stroke-width="2" 
          d="m6 9l6 6l6-6"/>
  </symbol>

  <symbol id="icon-chevron-left" viewBox="0 0 24 24">
    <path fill="none" stroke="currentColor" stroke-linecap="round" stroke-linejoin="round" stroke-width="2"
          d="m15 18l-6-6l6-6"/>
  </symbol>

  <symbol id="icon-chevron-right" viewBox="0 0 24 24">
    <path fill="none" stroke="currentColor" stroke-linecap="round" stroke-linejoin="round" stroke-width="2"
          d="m9 18l6-6l-6-6"/>
  </symbol>

  <symbol id="icon-scales" viewBox="0 0 24 24">
    <path fill="none" stroke="currentColor" stroke-linecap="round" stroke-linejoin="round" stroke-width="2"
          d="m16 16l3-8l3 8c-.87.65-1.92 1-3 1s-2.13-.35-3-1M2 16l3-8l3 8c-.87.65-1.92 1-3 1s-2.13-.35-3-1m5 5h10M12 3v18M3 7h2c2 0 5-1 7-2c2 1 5 2 7 2h2"/>
  </symbol>

<symbol viewBox="0 0 24 24" id="lucide-filter"><!-- Icon from Lucide by Lucide Contributors - https://github.com/lucide-icons/lucide/blob/main/LICENSE --><path fill="none" stroke="currentColor" stroke-linecap="round" stroke-linejoin="round" stroke-width="2" d="M22 3H2l8 9.46V19l4 2v-8.54z"></path></symbol>

  <symbol id="icon-grid" viewBox="0 0 24 24">
    <g fill="none" stroke="currentColor" stroke-linecap="round" stroke-linejoin="round" stroke-width="2">
      <rect width="18" height="18" x="3" y="3" rx="2"/>
      <path d="M3 9h18M3 15h18M9 3v18m6-18v18"/> 
    </g>
  </symbol>

  <symbol viewBox="0 0 24 24" id="lucide-message-square-text"><!-- Icon from Lucide by Lucide Contributors - https://github.com/lucide-icons/lucide/blob/main/LICENSE --><path fill="none" stroke="currentColor" stroke-linecap="round" stroke-linejoin="round" stroke-width="2" d="M22 17a2 2 0 0 1-2 2H6.828a2 2 0 0 0-1.414.586l-2.202 2.202A.71.71 0 0 1 2 21.286V5a2 2 0 0 1 2-2h16a2 2 0 0 1 2 2zM7 11h10M7 15h6M7 7h8"></path></symbol>

  <symbol viewBox="0 0 24 24" id="lucide-star"><!-- Icon from Lucide by Lucide Contributors - https://github.com/lucide-icons/lucide/blob/main/LICENSE --><path fill="currentColor" stroke="currentColor" stroke-linecap="round" stroke-linejoin="round" stroke-width="2" d="M11.525 2.295a.53.53 0 0 1 .95 0l2.31 4.679a2.12 2.12 0 0 0 1.595 1.16l5.166.756a.53.53 0 0 1 .294.904l-3.736 3.638a2.12 2.12 0 0 0-.611 1.878l.882 5.14a.53.53 0 0 1-.771.56l-4.618-2.428a2.12 2.12 0 0 0-1.973 0L6.396 21.01a.53.53 0 0 1-.77-.56l.881-5.139a2.12 2.12 0 0 0-.611-1.879L2.16 9.795a.53.53 0 0 1 .294-.906l5.165-.755a2.12 2.12 0 0 0 1.597-1.16z"></path></symbol>

<symbol viewBox="0 0 24 24" id="lucide-arrow-left-right"><!-- Icon from Lucide by Lucide Contributors - https://github.com/lucide-icons/lucide/blob/main/LICENSE --><path fill="none" stroke="currentColor" stroke-linecap="round" stroke-linejoin="round" stroke-width="2" d="M8 3L4 7l4 4M4 7h16m-4 14l4-4l-4-4m4 4H4"></path></symbol>

  <symbol viewBox="0 0 24 24" id="lucide-badge-check">
    <g fill="none" stroke="currentColor" stroke-linecap="round" stroke-linejoin="round" stroke-width="2"><path d="M3.85 8.62a4 4 0 0 1 4.78-4.77a4 4 0 0 1 6.74 0a4 4 0 0 1 4.78 4.78a4 4 0 0 1 0 6.74a4 4 0 0 1-4.77 4.78a4 4 0 0 1-6.75 0a4 4 0 0 1-4.78-4.77a4 4 0 0 1 0-6.76"></path><path d="m9 12l2 2l4-4">
    </path>
    </g>
  </symbol>


  <symbol id="icon-list" viewBox="0 0 24 24">
    <g fill="none" stroke="currentColor" stroke-linecap="round" stroke-linejoin="round" stroke-width="2">
      <rect width="7" height="7" x="3" y="3" rx="1"/>
      <rect width="7" height="7" x="3" y="14" rx="1"/>
      <path d="M14 4h7m-7 5h7m-7 6h7m-7 5h7"/>
    </g>
  </symbol>
  
  <symbol viewBox="0 0 24 24" id="lucide-house"><g fill="none" stroke="currentColor" stroke-linecap="round" stroke-linejoin="round" stroke-width="2"><path d="M15 21v-8a1 1 0 0 0-1-1h-4a1 1 0 0 0-1 1v8"></path><path d="M3 10a2 2 0 0 1 .709-1.528l7-6a2 2 0 0 1 2.582 0l7 6A2 2 0 0 1 21 10v9a2 2 0 0 1-2 2H5a2 2 0 0 1-2-2z"></path></g></symbol>

  <symbol id="icon-trash" viewBox="0 0 24 24">
    <path fill="none" stroke="currentColor" stroke-linecap="round" stroke-linejoin="round" stroke-width="2" d="M8 6.142V4.471c0-1.165 0-1.747.35-2.11C8.698 2 9.26 2 10.385 2h3.228c1.125 0 1.687 0 2.037.362.349.362.349.944.349 2.109v1.671M12 21c-1.356 0-2.298-.001-3.027-.075-.711-.073-1.117-.207-1.428-.408a3 3 0 0 1-.69-.618c-.234-.286-.412-.675-.562-1.374-.154-.717-.258-1.654-.407-3.002L4.882 6.431h14.236l-1.004 9.092c-.149 1.348-.253 2.285-.407 3.002-.15.699-.327 1.088-.562 1.374-.196.24-.43.449-.69.618-.31.201-.716.335-1.427.408-.73.074-1.672.075-3.028.075Z"/>
    <path fill="none" stroke="currentColor" stroke-linecap="round" stroke-linejoin="round" stroke-width="2" d="M3 6.122h18"/>
  </symbol>

  <symbol id="icon-instagram" viewBox="0 0 24 24">
    <g fill="none" stroke="currentColor" stroke-linecap="round" stroke-linejoin="round" stroke-width="2">
      <rect width="20" height="20" x="2" y="2" rx="5" ry="5"></rect>
      <path d="M16 11.37A4 4 0 1 1 12.63 8A4 4 0 0 1 16 11.37m1.5-4.87h.01"></path>
    </g>
  </symbol>

</svg>
